<svg width="108" height="108" viewBox="0 0 108 108" fill="none" xmlns="http://www.w3.org/2000/svg">
<g id="Frame">
<path id="Vector" d="M76.6377 56.3877L42.8877 90.1377C42.5742 90.4513 42.2019 90.7001 41.7922 90.8698C41.3825 91.0395 40.9434 91.1268 40.4999 91.1268C40.0565 91.1268 39.6173 91.0395 39.2076 90.8698C38.7979 90.7001 38.4257 90.4513 38.1121 90.1377C37.7985 89.8242 37.5498 89.4519 37.3801 89.0422C37.2104 88.6325 37.123 88.1934 37.123 87.7499C37.123 87.3065 37.2104 86.8674 37.3801 86.4576C37.5498 86.048 37.7985 85.6757 38.1121 85.3621L69.4785 53.9999L38.1121 22.6377C37.4788 22.0044 37.123 21.1455 37.123 20.2499C37.123 19.3543 37.4788 18.4954 38.1121 17.8621C38.7454 17.2288 39.6043 16.873 40.4999 16.873C41.3955 16.873 42.2545 17.2288 42.8877 17.8621L76.6377 51.6121C76.9515 51.9256 77.2005 52.2978 77.3703 52.7075C77.5402 53.1172 77.6276 53.5564 77.6276 53.9999C77.6276 54.4435 77.5402 54.8826 77.3703 55.2923C77.2005 55.7021 76.9515 56.0743 76.6377 56.3877Z" fill="black"/>
</g>
</svg>
