<svg width="71" height="65" viewBox="0 0 71 65" fill="none" xmlns="http://www.w3.org/2000/svg">
<path id="Vector" d="M35.5 0C28.4788 0 21.6152 1.90609 15.7773 5.47724C9.93933 9.04838 5.3892 14.1242 2.70229 20.0628C0.0153817 26.0014 -0.687637 32.536 0.682138 38.8404C2.05191 45.1448 5.43296 50.9358 10.3977 55.481C15.3625 60.0262 21.688 63.1215 28.5743 64.3755C35.4606 65.6295 42.5985 64.9859 49.0853 62.5261C55.572 60.0662 61.1164 55.9006 65.0172 50.556C68.918 45.2114 71 38.9279 71 32.5C70.9896 23.8834 67.246 15.6224 60.5908 9.52958C53.9355 3.43672 44.912 0.00955808 35.5 0ZM63.1111 32.5C63.1187 36.456 62.1051 40.3577 60.1528 43.887L39.4445 30.6192V7.48403C46.012 8.35944 52.0165 11.3682 56.3615 15.961C60.7066 20.5538 63.1023 26.4241 63.1111 32.5ZM31.5556 7.48403V30.6192L10.8472 43.887C8.86726 40.3072 7.84744 36.347 7.87226 32.3345C7.89707 28.322 8.9658 24.3726 10.9899 20.8136C13.014 17.2545 15.9353 14.1882 19.5117 11.8686C23.0881 9.54899 27.2167 8.04287 31.5556 7.475V7.48403ZM15.3932 49.7972L31.5556 39.4363V57.516C25.3678 56.6956 19.6686 53.9737 15.3932 49.7972ZM39.4445 57.516V39.4363L55.6068 49.7972C51.3314 53.9737 45.6322 56.6956 39.4445 57.516Z" fill="black"/>
</svg>
