<svg width="81" height="71" viewBox="0 0 81 71" fill="none" xmlns="http://www.w3.org/2000/svg">
<g id="Frame" clip-path="url(#clip0_52_61)">
<path id="Vector" d="M56.0768 7.69212C55.6419 7.59469 55.1684 7.58265 54.6922 7.65692C54.2161 7.73119 53.7497 7.88981 53.3286 8.12075L22.8438 24.8414C22.2255 25.1805 21.7343 25.6592 21.4483 26.2013C21.1623 26.7434 21.0978 27.3179 21.2652 27.8334L27.7344 47.7435C25.5149 47.7308 23.2319 48.3011 21.2251 49.3697C19.2182 50.4382 17.5947 51.9479 16.5961 53.6741C15.5974 55.4003 15.277 57.2508 15.6824 58.9503C16.0879 60.6499 17.1976 62.1076 18.8464 63.1067C20.4953 64.1059 22.5951 64.593 24.8337 64.4956C27.0723 64.3982 29.3299 63.7215 31.2707 62.5663C33.2116 61.411 34.7319 59.8388 35.6056 58.0836C36.4794 56.3284 36.6598 54.484 36.12 52.8248L30.9478 36.9063L55.7167 23.3208L58.2205 31.0267C56.0008 31.014 53.7176 31.5844 51.7106 32.6532C49.7036 33.7219 48.0801 35.2319 47.0816 36.9583C46.0831 38.6847 45.763 40.5354 46.1689 42.235C46.5748 43.9346 47.6851 45.3923 49.3344 46.3911C50.9838 47.39 53.0842 47.8766 55.323 47.7786C57.5619 47.6807 59.8196 47.0034 61.7602 45.8474C63.7008 44.6915 65.2206 43.1188 66.0935 41.3633C66.9664 39.6077 67.1457 37.7632 66.6048 36.1041L57.8416 9.13355C57.7273 8.78214 57.5089 8.46967 57.2031 8.2199C56.8973 7.97013 56.5121 7.78962 56.0768 7.69212ZM26.969 59.2058C26.1658 59.4668 25.322 59.5411 24.5441 59.4194C23.7662 59.2977 23.0893 58.9855 22.5989 58.5221C22.1086 58.0588 21.8268 57.4651 21.7892 56.8163C21.7516 56.1675 21.9599 55.4926 22.3878 54.877C22.8157 54.2614 23.4439 53.7327 24.193 53.3578C24.9421 52.9829 25.7785 52.7786 26.5963 52.7708C27.4142 52.763 28.1768 52.952 28.7877 53.3139C29.3986 53.6758 29.8304 54.1944 30.0285 54.804C30.2941 55.6215 30.121 56.5445 29.5472 57.37C28.9735 58.1955 28.0461 58.8559 26.969 59.2058ZM29.3992 32.1403L27.9432 27.6593L52.7122 14.0738L54.1681 18.5547L29.3992 32.1403ZM57.4539 42.4852C56.6507 42.7462 55.8068 42.8205 55.0289 42.6988C54.2511 42.5771 53.5741 42.2648 53.0838 41.8015C52.5934 41.3381 52.3116 40.7445 52.274 40.0956C52.2364 39.4468 52.4448 38.7719 52.8726 38.1563C53.3005 37.5407 53.9287 37.012 54.6778 36.6371C55.4269 36.2622 56.2633 36.058 57.0812 36.0502C57.899 36.0424 58.6616 36.2314 59.2725 36.5933C59.8835 36.9552 60.3153 37.4737 60.5133 38.0833C60.779 38.9008 60.6059 39.8239 60.0321 40.6494C59.4583 41.4749 58.5309 42.1352 57.4539 42.4852Z" fill="black"/>
</g>
<defs>
<clipPath id="clip0_52_61">
<rect width="68.3195" height="51.8556" fill="white" transform="translate(-1.90735e-06 21.1119) rotate(-18)"/>
</clipPath>
</defs>
</svg>
