<svg width="32" height="32" viewBox="0 0 32 32" fill="none" xmlns="http://www.w3.org/2000/svg">
<g id="Frame">
<path id="Vector" d="M30 16C30.0032 16.4102 29.8785 16.8111 29.6433 17.1472C29.408 17.4832 29.074 17.7376 28.6875 17.875L20.7575 20.7588L17.875 28.6875C17.7329 29.0703 17.4771 29.4004 17.1419 29.6335C16.8068 29.8666 16.4083 29.9915 16 29.9915C15.5917 29.9915 15.1932 29.8666 14.8581 29.6335C14.5229 29.4004 14.2671 29.0703 14.125 28.6875L11.2412 20.75L3.3125 17.875C2.92974 17.7329 2.59964 17.4771 2.36653 17.142C2.13342 16.8068 2.00847 16.4083 2.00847 16C2.00847 15.5917 2.13342 15.1933 2.36653 14.8581C2.59964 14.5229 2.92974 14.2671 3.3125 14.125L11.25 11.2413L14.125 3.31251C14.2671 2.92976 14.5229 2.59965 14.8581 2.36654C15.1932 2.13343 15.5917 2.00848 16 2.00848C16.4083 2.00848 16.8068 2.13343 17.1419 2.36654C17.4771 2.59965 17.7329 2.92976 17.875 3.31251L20.7587 11.25L28.6875 14.125C29.074 14.2624 29.408 14.5168 29.6433 14.8529C29.8785 15.1889 30.0032 15.5898 30 16Z" fill="#FF7A00"/>
</g>
</svg>
