<svg width="26" height="24" viewBox="0 0 26 24" fill="none" xmlns="http://www.w3.org/2000/svg">
<g id="Frame" clip-path="url(#clip0_54_71)">
<g id="Clip path group">
<mask id="mask0_54_71" style="mask-type:luminance" maskUnits="userSpaceOnUse" x="0" y="0" width="26" height="24">
<g id="clip0_231_648">
<path id="Vector" d="M26 0.5H0V23.5H26V0.5Z" fill="white"/>
</g>
</mask>
<g mask="url(#mask0_54_71)">
<g id="Group">
<path id="Vector_2" fill-rule="evenodd" clip-rule="evenodd" d="M13 4.36916C12.0606 4.36916 11.2991 5.04282 11.2991 5.87384H6.92523C6.92523 2.90595 9.645 0.5 13 0.5C16.355 0.5 19.0748 2.90595 19.0748 5.87384C19.0748 8.84172 16.355 11.2477 13 11.2477V7.37851C13.9394 7.37851 14.7009 6.70484 14.7009 5.87384C14.7009 5.04282 13.9394 4.36916 13 4.36916ZM21.6261 12C21.6261 11.169 20.8646 10.4953 19.9252 10.4953V6.62616C23.2803 6.62616 26 9.03211 26 12C26 14.9679 23.2803 17.3738 19.9252 17.3738C16.5702 17.3738 13.8505 14.9679 13.8505 12H18.2243C18.2243 12.831 18.9858 13.5047 19.9252 13.5047C20.8646 13.5047 21.6261 12.831 21.6261 12ZM6.07477 13.5047C5.13536 13.5047 4.37384 12.831 4.37384 12C4.37384 11.169 5.13536 10.4953 6.07477 10.4953C7.01416 10.4953 7.7757 11.169 7.7757 12H12.1495C12.1495 9.03211 9.42977 6.62616 6.07477 6.62616C2.71977 6.62616 0 9.03211 0 12C0 14.9679 2.71977 17.3738 6.07477 17.3738V13.5047ZM13 19.6308C13.9394 19.6308 14.7009 18.9572 14.7009 18.1262H19.0748C19.0748 21.0941 16.355 23.5 13 23.5C9.645 23.5 6.92523 21.0941 6.92523 18.1262C6.92523 15.1582 9.645 12.7523 13 12.7523V16.6215C12.0606 16.6215 11.2991 17.2952 11.2991 18.1262C11.2991 18.9572 12.0606 19.6308 13 19.6308Z" fill="#FF7A00"/>
</g>
</g>
</g>
</g>
<defs>
<clipPath id="clip0_54_71">
<rect width="26" height="23" fill="white" transform="translate(0 0.5)"/>
</clipPath>
</defs>
</svg>
