<svg width="86" height="82" viewBox="0 0 86 82" fill="none" xmlns="http://www.w3.org/2000/svg">
<g id="SVGRepo_iconCarrier">
<g id="Group">
<path id="Vector" d="M57.6171 69.1237C56.6892 68.7287 55.9869 68.4358 55.4153 68.1978C53.6594 67.4655 53.1879 67.2689 51.2015 66.2088C50.4187 65.791 47.7772 62.8615 48.9685 59.195C50.5032 54.4715 53.8211 50.9379 55.1757 49.6379C55.2114 49.6041 55.305 49.5031 55.4334 49.3669C55.6688 49.1166 57.2719 47.6643 57.2719 47.6643C58.1216 46.9366 59.0009 46.184 59.6873 45.3405L59.7234 45.2976C60.7402 44.0837 64.2472 39.5785 66.673 32.5587C66.9045 31.8461 66.0693 30.8892 65.5706 30.3178C65.4794 30.2129 65.3982 30.1207 65.3395 30.0463C64.872 29.4564 64.2461 28.7124 63.521 27.8511C63.0435 27.2833 62.5177 26.6579 61.9532 25.9772C61.0498 24.8893 59.9958 23.8201 58.9758 22.7861C57.7215 21.5151 56.4255 20.2011 55.4406 18.8744C53.9684 16.8921 52.9724 13.9362 53.9161 12.1214C54.0588 11.8477 54.0219 11.5592 53.8125 11.3085C53.5803 11.03 53.1409 10.824 52.7081 10.784C52.3338 10.5617 51.857 10.4701 51.506 10.5591C51.1895 10.6389 50.9895 10.8504 50.9447 11.1559C50.6409 13.1786 48.0976 14.9846 45.742 15.7232C44.1648 16.2174 42.3439 16.5187 40.5821 16.8097C39.1498 17.0468 37.6677 17.292 36.298 17.6413C35.4415 17.8603 34.6476 18.0569 33.9278 18.2357C32.8347 18.5062 31.8915 18.7404 31.1661 18.9427C31.0748 18.9684 30.9559 18.9955 30.8201 19.0266C30.0807 19.1958 28.8423 19.4789 28.6096 20.1952C26.4475 27.2966 26.6366 33.0028 26.7457 34.5825L26.7494 34.6383C26.8089 35.7242 27.0781 36.8501 27.3373 37.9379C27.3373 37.9379 27.7803 40.0551 27.8237 40.3959C27.8478 40.5817 27.8644 40.7186 27.8734 40.7669C28.2049 42.6147 28.8118 47.4235 27.2771 52.147C26.0857 55.8137 22.2271 56.631 21.3485 56.5089C19.1184 56.199 18.621 56.0808 16.7698 55.6411C16.1674 55.4977 15.4277 55.322 14.4448 55.0962C3.88593 52.3616 1.81357 54.9357 1.41265 56.1696C1.3052 56.5003 1.25571 57.6723 2.30048 59.107C3.2394 60.3962 5.34041 62.2526 10.0223 63.7738C10.7246 64.002 11.4754 64.2196 12.2543 64.4206C15.4325 65.2417 18.6662 65.9745 21.793 66.6832C22.9288 66.9407 24.0626 67.1977 25.1971 67.4594C26.7083 67.8081 29.3844 68.5832 33.1496 69.7633C33.326 69.8184 33.4487 69.8566 33.5083 69.8749C33.5672 69.8951 33.6889 69.9365 33.8635 69.9952C37.6038 71.2539 40.2241 72.1997 41.652 72.8059C42.7231 73.2608 43.7917 73.7194 44.8616 74.1786C47.8081 75.4432 50.8552 76.7512 53.9085 77.9548C54.6568 78.2499 55.392 78.5153 56.0944 78.7436C60.7771 80.2651 63.5685 79.9988 65.0851 79.507C66.7736 78.9605 67.422 77.9828 67.5294 77.6522C67.9297 76.4182 67.7668 73.1177 57.6171 69.1237ZM49.3199 39.8409C49.1656 39.7907 49.0256 39.7241 48.8906 39.6359C48.4446 39.3697 47.9978 38.6431 48.0066 38.4203C50.7156 38.2459 52.9251 36.9606 53.6008 34.881C54.5987 31.8098 54.8405 29.1356 47.5177 26.7563C40.195 24.377 38.8187 26.6826 37.8208 29.7537C37.1451 31.8334 38.1772 34.172 40.266 35.9052C40.1434 36.0906 39.349 36.3861 38.8366 36.3692C38.6759 36.3613 38.5237 36.333 38.3688 36.2826C36.8269 35.782 35.5214 33.2243 35.2635 32.2915C34.8228 30.7058 34.4721 28.1125 35.3039 24.7646L35.3354 24.6356C35.5002 23.927 37.8902 22.7544 38.2289 22.531C38.6947 22.2232 44.2022 19.8788 45.7648 19.4072C46.3179 19.2406 49.1682 18.2485 50.4248 17.8101C51.1835 18.9033 52.906 21.3812 53.2553 21.841C54.2431 23.1413 57.3196 28.2748 57.5161 28.7978C57.6591 29.1777 58.9035 31.5311 58.6205 32.2014L58.5701 32.3243C57.2749 35.5218 55.4675 37.4139 54.1781 38.4372C53.4212 39.0401 50.8623 40.342 49.3199 39.8409Z" fill="black"/>
</g>
</g>
</svg>
