<svg width="70" height="64" viewBox="0 0 70 64" fill="none" xmlns="http://www.w3.org/2000/svg">
<g id="SVGRepo_iconCarrier">
<g id="Group">
<path id="Vector" d="M57.587 54.1963C56.5824 54.1074 55.8241 54.0458 55.2068 53.9961C53.3106 53.8422 52.8014 53.8009 50.5847 53.4066C49.711 53.2511 46.2935 51.2813 46.2935 47.4261C46.2935 42.4595 48.3571 38.0736 49.2437 36.4187C49.2671 36.3755 49.3249 36.2505 49.405 36.0813C49.5515 35.7705 50.6274 33.8939 50.6274 33.8939C51.2106 32.9392 51.8143 31.9517 52.2064 30.9374L52.2275 30.8855C52.8195 29.4168 54.7626 24.0483 54.9005 16.6225C54.9005 15.8732 53.8105 15.2213 53.1595 14.8319C53.0403 14.7604 52.9347 14.6978 52.8559 14.6451C52.229 14.2286 51.4038 13.7144 50.448 13.1193C49.8185 12.7269 49.1251 12.2945 48.3779 11.8216C47.1825 11.0661 45.8497 10.3749 44.5601 9.7068C42.9745 8.88561 41.3358 8.03638 39.9891 7.07899C37.9764 5.64865 36.1157 3.14517 36.4525 1.12754C36.5036 0.823136 36.3793 0.560182 36.1028 0.386485C35.7958 0.193354 35.3143 0.133162 34.8903 0.228954C34.4657 0.133162 33.9838 0.193354 33.6775 0.386485C33.4012 0.560182 33.2763 0.823136 33.3281 1.12754C33.6642 3.14517 31.8035 5.64865 29.7914 7.07899C28.4441 8.03638 26.8055 8.88561 25.2198 9.7068C23.9309 10.3749 22.5971 11.0661 21.4024 11.8216C20.6555 12.2945 19.9612 12.7269 19.3319 13.1193C18.3758 13.7144 17.5513 14.2286 16.9238 14.6451C16.8449 14.6978 16.7402 14.7604 16.6207 14.8319C15.9698 15.2213 14.8795 15.8732 14.8795 16.6263C15.0176 24.0483 16.9608 29.4168 17.5528 30.8855L17.5735 30.9374C17.9657 31.9517 18.5696 32.9394 19.1523 33.8939C19.1523 33.8939 20.2278 35.7705 20.3744 36.0813C20.4547 36.2505 20.5128 36.3755 20.5363 36.4187C21.4226 38.0736 23.4858 42.4595 23.4858 47.4261C23.4858 51.2815 20.0686 53.2511 19.1953 53.4066C16.9786 53.8009 16.4691 53.8422 14.5725 53.9961C13.9553 54.0458 13.1975 54.1074 12.193 54.1963C1.30585 54.8584 0.130372 57.947 0.130372 59.2444C0.130372 59.5921 0.445457 60.722 1.88245 61.7637C3.17379 62.6996 5.74563 63.8159 10.6684 63.8159C11.4069 63.8159 12.1882 63.7908 12.9911 63.7412C16.2674 63.54 19.5694 63.2377 22.7621 62.9455C23.9219 62.8394 25.0796 62.7334 26.2394 62.6318C27.7845 62.4965 30.5691 62.4067 34.5147 62.3654C34.6995 62.3634 34.828 62.3618 34.8903 62.3608C34.9526 62.3618 35.0811 62.3635 35.2653 62.3654C39.2115 62.4067 41.9958 62.4965 43.5411 62.6318C44.7004 62.7334 45.8584 62.8394 47.0179 62.9455C50.2109 63.2377 53.5131 63.54 56.7889 63.7412C57.5918 63.7906 58.373 63.8159 59.1115 63.8159C64.0352 63.8159 66.6077 62.7001 67.8981 61.7637C69.3351 60.7222 69.6496 59.5919 69.6496 59.2444C69.649 57.947 68.4741 54.8584 57.587 54.1963ZM40.647 28.9107C40.4848 28.9107 40.331 28.8905 40.1754 28.8484C39.6689 28.733 39.0195 28.1801 38.959 27.9655C41.4815 26.9625 43.1857 25.0573 43.1857 22.8706C43.1857 19.6414 42.5893 17.0234 34.8897 17.0234C27.1901 17.0234 26.5936 19.6414 26.5936 22.8706C26.5936 25.0573 28.2979 26.9625 30.8201 27.9655C30.7608 28.1796 30.0966 28.7062 29.6039 28.8484C29.4487 28.8905 29.2952 28.9107 29.1324 28.9107C27.5112 28.911 25.4792 26.8818 24.9457 26.0744C24.0365 24.7025 22.9017 22.3446 22.6582 18.9035L22.6483 18.771C22.586 18.0462 24.4967 16.1924 24.7498 15.8753C25.0977 15.4386 29.6112 11.5071 30.9516 10.5756C31.4261 10.2463 33.8304 8.42196 34.89 7.61676C35.9493 8.42196 38.3532 10.2463 38.8275 10.5756C40.1688 11.5071 44.6811 15.4386 45.0296 15.8753C45.283 16.1924 47.1937 18.0462 47.1317 18.771L47.1217 18.9035C46.878 22.3447 45.7437 24.7027 44.8337 26.0744C44.3001 26.8817 42.2688 28.9107 40.647 28.9107Z" fill="black"/>
</g>
</g>
</svg>
