<svg width="25" height="25" viewBox="0 0 25 25" fill="none" xmlns="http://www.w3.org/2000/svg">
<g id="Frame">
<path id="Vector" d="M22.732 16.9813V19.975C22.7332 20.2529 22.6762 20.528 22.5649 20.7826C22.4536 21.0373 22.2903 21.2659 22.0855 21.4537C21.8807 21.6416 21.6389 21.7847 21.3756 21.8737C21.1124 21.9627 20.8334 21.9958 20.5566 21.9708C17.4859 21.6371 14.5363 20.5878 11.9447 18.9072C9.53364 17.3751 7.48946 15.3309 5.95734 12.9198C4.27087 10.3165 3.22135 7.35255 2.89379 4.26805C2.86886 3.9921 2.90165 3.71397 2.99009 3.45139C3.07853 3.18881 3.22068 2.94752 3.40748 2.74288C3.59428 2.53824 3.82164 2.37474 4.0751 2.26279C4.32855 2.15084 4.60254 2.09289 4.87961 2.09263H7.87331C8.3576 2.08786 8.8271 2.25935 9.19429 2.57514C9.56149 2.89093 9.80133 3.32947 9.86911 3.80901C9.99547 4.76706 10.2298 5.70774 10.5676 6.61311C10.7019 6.97028 10.731 7.35846 10.6514 7.73164C10.5718 8.10482 10.3869 8.44736 10.1186 8.71868L8.85125 9.98601C10.2718 12.4843 12.3404 14.5528 14.8387 15.9734L16.106 14.7061C16.3773 14.4378 16.7198 14.2529 17.093 14.1733C17.4662 14.0937 17.8544 14.1228 18.2116 14.257C19.1169 14.5949 20.0576 14.8292 21.0157 14.9556C21.5004 15.0239 21.9431 15.2681 22.2596 15.6416C22.576 16.0151 22.7442 16.4919 22.732 16.9813Z" stroke="white" stroke-width="1.9958" stroke-linecap="round" stroke-linejoin="round"/>
</g>
</svg>
