<svg width="25" height="25" viewBox="0 0 25 25" fill="none" xmlns="http://www.w3.org/2000/svg">
<g id="Frame">
<path id="Vector" d="M12.2072 2.09277C11.4132 2.09277 10.6517 2.40818 10.0903 2.96961C9.52886 3.53104 9.21346 4.29249 9.21346 5.08647V12.0718C9.21346 12.8657 9.52886 13.6272 10.0903 14.1886C10.6517 14.7501 11.4132 15.0655 12.2072 15.0655C13.0011 15.0655 13.7626 14.7501 14.324 14.1886C14.8854 13.6272 15.2009 12.8657 15.2009 12.0718V5.08647C15.2009 4.29249 14.8854 3.53104 14.324 2.96961C13.7626 2.40818 13.0011 2.09277 12.2072 2.09277Z" stroke="black" stroke-width="1.9958" stroke-linecap="round" stroke-linejoin="round"/>
<path id="Vector_2" d="M19.1903 10.0762V12.072C19.1903 13.9246 18.4544 15.7013 17.1444 17.0113C15.8344 18.3213 14.0576 19.0573 12.205 19.0573C10.3524 19.0573 8.57565 18.3213 7.26566 17.0113C5.95566 15.7013 5.21971 13.9246 5.21971 12.072V10.0762" stroke="black" stroke-width="1.9958" stroke-linecap="round" stroke-linejoin="round"/>
<path id="Vector_3" d="M12.2027 19.0571V22.0508" stroke="black" stroke-width="1.9958" stroke-linecap="round" stroke-linejoin="round"/>
</g>
</svg>
