<svg width="25" height="25" viewBox="0 0 25 25" fill="none" xmlns="http://www.w3.org/2000/svg">
<g id="Frame">
<path id="Vector" d="M12.5295 2.09277H12.0904C11.5611 2.09277 11.0534 2.30304 10.6792 2.67733C10.3049 3.05161 10.0946 3.55925 10.0946 4.08857V4.26819C10.0942 4.61818 10.0018 4.96192 9.8267 5.26493C9.65155 5.56794 9.3998 5.81957 9.0967 5.99456L8.6676 6.24404C8.3642 6.4192 8.02004 6.51142 7.6697 6.51142C7.31937 6.51142 6.9752 6.4192 6.6718 6.24404L6.52212 6.1642C6.06415 5.90002 5.52006 5.82835 5.0093 5.96493C4.49854 6.10151 4.06284 6.43517 3.79785 6.89267L3.57831 7.27187C3.31413 7.72984 3.24246 8.27393 3.37904 8.78469C3.51562 9.29545 3.84928 9.73115 4.30678 9.99614L4.45646 10.0959C4.75811 10.2701 5.00892 10.5201 5.18398 10.8212C5.35905 11.1223 5.45226 11.464 5.45436 11.8123V12.3212C5.45576 12.6729 5.3642 13.0187 5.18897 13.3236C5.01373 13.6286 4.76103 13.8818 4.45646 14.0576L4.30678 14.1474C3.84928 14.4124 3.51562 14.8481 3.37904 15.3589C3.24246 15.8696 3.31413 16.4137 3.57831 16.8717L3.79785 17.2509C4.06284 17.7084 4.49854 18.042 5.0093 18.1786C5.52006 18.3152 6.06415 18.2435 6.52212 17.9793L6.6718 17.8995C6.9752 17.7243 7.31937 17.6321 7.6697 17.6321C8.02004 17.6321 8.3642 17.7243 8.6676 17.8995L9.0967 18.149C9.3998 18.324 9.65155 18.5756 9.8267 18.8786C10.0018 19.1816 10.0942 19.5254 10.0946 19.8753V20.055C10.0946 20.5843 10.3049 21.0919 10.6792 21.4662C11.0534 21.8405 11.5611 22.0508 12.0904 22.0508H12.5295C13.0588 22.0508 13.5664 21.8405 13.9407 21.4662C14.315 21.0919 14.5253 20.5843 14.5253 20.055V19.8753C14.5256 19.5254 14.618 19.1816 14.7932 18.8786C14.9683 18.5756 15.2201 18.324 15.5232 18.149L15.9523 17.8995C16.2557 17.7243 16.5998 17.6321 16.9502 17.6321C17.3005 17.6321 17.6447 17.7243 17.9481 17.8995L18.0978 17.9793C18.5557 18.2435 19.0998 18.3152 19.6106 18.1786C20.1213 18.042 20.557 17.7084 20.822 17.2509L21.0416 16.8617C21.3057 16.4037 21.3774 15.8596 21.2408 15.3489C21.1043 14.8381 20.7706 14.4024 20.3131 14.1374L20.1634 14.0576C19.8588 13.8818 19.6061 13.6286 19.4309 13.3236C19.2557 13.0187 19.1641 12.6729 19.1655 12.3212V11.8223C19.1641 11.4706 19.2557 11.1248 19.4309 10.8199C19.6061 10.515 19.8588 10.2618 20.1634 10.0859L20.3131 9.99614C20.7706 9.73115 21.1043 9.29545 21.2408 8.78469C21.3774 8.27393 21.3057 7.72984 21.0416 7.27187L20.822 6.89267C20.557 6.43517 20.1213 6.10151 19.6106 5.96493C19.0998 5.82835 18.5557 5.90002 18.0978 6.1642L17.9481 6.24404C17.6447 6.4192 17.3005 6.51142 16.9502 6.51142C16.5998 6.51142 16.2557 6.4192 15.9523 6.24404L15.5232 5.99456C15.2201 5.81957 14.9683 5.56794 14.7932 5.26493C14.618 4.96192 14.5256 4.61818 14.5253 4.26819V4.08857C14.5253 3.55925 14.315 3.05161 13.9407 2.67733C13.5664 2.30304 13.0588 2.09277 12.5295 2.09277Z" stroke="black" stroke-width="1.9958" stroke-linecap="round" stroke-linejoin="round"/>
<path id="Vector_2" d="M12.3157 15.0653C13.9691 15.0653 15.3094 13.725 15.3094 12.0716C15.3094 10.4182 13.9691 9.07788 12.3157 9.07788C10.6623 9.07788 9.32201 10.4182 9.32201 12.0716C9.32201 13.725 10.6623 15.0653 12.3157 15.0653Z" stroke="black" stroke-width="1.9958" stroke-linecap="round" stroke-linejoin="round"/>
</g>
</svg>
